<svg width="24" height="24" xmlns="http://www.w3.org/2000/svg" t="1692451904" class="icon" version="1.1" p-id="2423" stroke="null">
 <g stroke="null">
  <title stroke="null">Completed</title>
  <path d="m9.44,14.35l8.66,-8.62a1.09,1.09 0 0 1 1.54,0l0.79,0.79a1.09,1.09 0 0 1 0,1.55l-10.21,10.16a1.10,1.10 0 0 1 -0.17,0.13a1.09,1.09 0 0 1 -1.39,-0.12l-5.11,-5.09a1.09,1.09 0 0 1 0,-1.55l0.79,-0.79a1.09,1.09 0 0 1 1.54,0l3.54,3.52l0,0.00z" fill="#375273" p-id="2424" id="svg_1" stroke="null"/>
 </g>
</svg>