<svg width="24" height="24" xmlns="http://www.w3.org/2000/svg" t="16924189" class="icon" version="1.1" p-id="2401" stroke="null">
 <g stroke="null">
  <title stroke="null">pending</title>
  <path d="m12,22.92c-6.03,0 -10.92,-4.89 -10.92,-10.92c0,-6.03 4.89,-10.92 10.92,-10.92c6.03,0 10.92,4.89 10.92,10.92c0,6.03 -4.89,10.92 -10.92,10.92zm0,-20.69c-5.39,0 -9.77,4.37 -9.77,9.77c0,5.39 4.37,9.77 9.77,9.77c5.39,0 9.77,-4.37 9.77,-9.77c0,-5.39 -4.37,-9.77 -9.77,-9.77zm4.79,12.00l-5.01,-1.69c0,0 0,0 -0.00,0l-0.07,-0.02c-0.21,-0.12 -0.31,-0.36 -0.27,-0.58l0,-6.81c0,-0.31 0.25,-0.57 0.57,-0.57c0.31,0 0.57,0.25 0.57,0.57l0,6.50l4.79,1.62c0.27,0.15 0.36,0.51 0.21,0.78c-0.15,0.27 -0.51,0.36 -0.78,0.21l-0.00,0.00z" fill="#8a8a8a" p-id="2402" id="svg_1" stroke="null"/>
 </g>

</svg>