<svg width="32" height="32" xmlns="http://www.w3.org/2000/svg" p-id="4881" version="1.1" class="icon" t="16926378449">

 <g>
  <title>icon-code</title>
  <g stroke="null" id="svg_9">
   <path stroke="null" id="svg_1" p-id="4882" fill="#53B7F4" d="m19.892,4.264l-10.33,0c-2.072,0 -3.753,1.680 -3.753,3.753l0,16.277c0,2.072 1.680,3.753 3.753,3.753l12.892,0c2.072,0 3.753,-1.680 3.753,-3.753l0,-13.723c0,-0.845 -0.335,-1.655 -0.933,-2.253l-3.120,-3.120a3.187,3.187 0 0 0 -2.253,-0.933z"/>
   <path stroke="null" id="svg_2" p-id="4883" fill="#29A3D3" d="m25.19,8.317l-3.120,-3.120a3.186,3.186 0 0 0 -1.63,-0.873l0,3.502c0,1.111 0.90,2.013 2.013,2.013l3.594,0a3.1,3.1 0 0 0 -0.847,-1.521zm-11.97,5.075c-0.248,-0.248 -0.652,-0.248 -0.90,0l-2.710,2.709c-0.248,0.248 -0.248,0.652 0,0.90l2.709,2.709a0.635,0.635 0 0 0 0.450,0.186c0.163,0 0.326,-0.062 0.450,-0.186c0.248,-0.248 0.248,-0.652 0,-0.90l-2.259,-2.259l2.259,-2.259c0.249,-0.248 0.249,-0.652 0.000,-0.90zm6.327,0c-0.248,-0.248 -0.652,-0.248 -0.90,0c-0.248,0.248 -0.248,0.652 0,0.90l2.259,2.259l-2.259,2.259c-0.248,0.248 -0.248,0.652 0,0.90c0.124,0.124 0.28,0.186 0.450,0.186s0.32,-0.062 0.450,-0.186l2.709,-2.709c0.248,-0.248 0.248,-0.652 0,-0.90l-2.709,-2.709zm-2.201,-1.260c-0.335,-0.105 -0.693,0.08 -0.799,0.415l-2.441,7.733c-0.105,0.335 0.08,0.693 0.415,0.799c0.063,0.020 0.128,0.029 0.1,0.029c0.27,0 0.521,-0.173 0.607,-0.44l2.441,-7.733c0.105,-0.335 -0.08,-0.693 -0.415,-0.799z"/>
   <path stroke="null" id="svg_3" p-id="4884" fill="#FFFFFF" d="m13.22,13.074c-0.248,-0.248 -0.652,-0.248 -0.90,0l-2.710,2.709c-0.248,0.248 -0.248,0.652 0,0.90l2.709,2.709a0.635,0.635 0 0 0 0.450,0.186c0.163,0 0.326,-0.062 0.450,-0.186c0.248,-0.248 0.248,-0.652 0,-0.90l-2.259,-2.259l2.259,-2.259c0.249,-0.248 0.249,-0.652 0.000,-0.90zm9.037,2.709l-2.710,-2.709c-0.248,-0.248 -0.652,-0.248 -0.90,0c-0.248,0.248 -0.248,0.652 0,0.90l2.259,2.259l-2.259,2.259c-0.248,0.248 -0.248,0.652 0,0.90c0.124,0.124 0.28,0.186 0.450,0.186s0.32,-0.062 0.450,-0.186l2.709,-2.709c0.249,-0.248 0.249,-0.65 0.000,-0.90zm-4.911,-3.970c-0.335,-0.105 -0.693,0.08 -0.799,0.415l-2.441,7.733c-0.105,0.335 0.08,0.693 0.415,0.799c0.063,0.020 0.128,0.029 0.1,0.029c0.27,0 0.521,-0.173 0.607,-0.44l2.441,-7.733c0.105,-0.335 -0.08,-0.693 -0.415,-0.799z"/>
  </g>
 </g>
</svg>