<svg width="32" height="32" xmlns="http://www.w3.org/2000/svg" t="16926391750" class="icon" version="1.1" p-id="5042">
 <g>
  <title>Layer 1</title>
  <g id="svg_4" stroke="null">
   <path d="m6.17,1.702l14.297,0l7.148,7.148l0,19.65c0,0.987 -0.8,1.787 -1.787,1.787l-19.65,0c-0.987,0 -1.787,-0.8 -1.787,-1.787l0,-25.021c0,-0.987 0.8,-1.787 1.787,-1.787l-0.008,0.01z" fill="#8289AD" p-id="5043" id="svg_1" stroke="null"/>
   <path d="m16.695,23.148l0,-9.65l3.772,0l0,-1.066l-8.757,0l0,1.066l3.772,0l0,9.65l1.212,0l0.001,0z" fill="#FFFFFF" p-id="5044" id="svg_2" stroke="null"/>
   <path d="m20.468,1.702l7.148,7.148l-5.361,0c-0.987,0 -1.787,-0.8 -1.787,-1.787l0,-5.361z" fill="#CDCFDE" p-id="5045" id="svg_3" stroke="null"/>
  </g>
 </g>

</svg>